<svg width="500" height="500" viewBox="0 0 500 500" fill="none" xmlns="http://www.w3.org/2000/svg">
<path fill-rule="evenodd" clip-rule="evenodd" d="M373.723 197.461C368.239 168.658 354.356 141.128 332.098 118.842C273.008 59.6776 177.197 59.6776 118.107 118.842C100.082 136.891 84.1624 163.607 77.2003 193.268C70.1961 223.108 72.138 256.627 91.0562 287.107C92.0249 288.668 92.624 289.635 93.0472 290.359C93.2424 290.692 93.3451 290.883 93.3884 290.964C93.4278 291.069 93.4521 291.141 93.4664 291.186C93.4661 291.24 93.4639 291.332 93.4548 291.472C93.4432 291.536 93.4161 291.678 93.3611 291.921C93.2211 292.541 93.0081 293.369 92.629 294.834L92.519 295.259C90.3462 303.652 88.5603 310.55 87.5106 316.124C86.4539 321.735 85.8426 327.398 86.9666 332.927C90.1715 348.695 102.483 361.031 118.251 364.244C123.783 365.371 129.446 364.758 135.051 363.699C140.619 362.648 147.51 360.86 155.892 358.684L156.317 358.574C157.779 358.194 158.607 357.981 159.226 357.841C159.466 357.786 159.607 357.759 159.672 357.747C159.8 357.739 159.888 357.736 159.943 357.736C159.988 357.75 160.056 357.774 160.151 357.809C160.234 357.853 160.426 357.957 160.763 358.153C161.491 358.578 162.466 359.18 164.035 360.151C174.186 366.432 184.752 370.822 195.455 373.602C199.425 379.133 203.89 384.411 208.847 389.374C223.452 403.997 245.759 417.268 270.606 423.22C295.625 429.212 324.131 427.957 349.925 411.997C351.176 411.223 351.94 410.751 352.504 410.42C352.954 410.527 353.572 410.687 354.597 410.953L355.01 411.06C361.858 412.837 367.594 414.326 372.252 415.206C376.947 416.092 381.947 416.662 386.922 415.648C400.762 412.828 411.565 402.002 414.377 388.166C415.388 383.193 414.82 378.194 413.935 373.495C413.057 368.833 411.571 363.091 409.795 356.234L409.688 355.82C409.42 354.783 409.26 354.161 409.153 353.71C409.482 353.15 409.952 352.392 410.727 351.143C426.671 325.455 428.277 297.236 422.406 272.225C416.578 247.394 403.262 225.037 388.141 209.897C383.585 205.336 378.763 201.189 373.723 197.461ZM314.719 136.2C265.223 86.6418 184.982 86.6418 135.487 136.2C120.586 151.119 106.999 173.805 101.113 198.88C95.2692 223.776 97.1376 250.328 111.926 274.154C112.066 274.38 112.208 274.608 112.35 274.837C113.76 277.1 115.279 279.537 116.159 281.751C117.721 285.677 118.262 289.23 117.939 293.443C117.757 295.811 117.121 298.252 116.562 300.396C116.51 300.596 116.458 300.794 116.408 300.989C114.098 309.912 112.527 316.007 111.649 320.67C110.76 325.39 110.879 327.258 111.037 328.035C112.282 334.16 117.059 338.934 123.155 340.176C123.923 340.332 125.781 340.453 130.494 339.563C135.149 338.684 141.234 337.112 150.147 334.799C150.342 334.748 150.54 334.697 150.741 334.644C152.88 334.085 155.318 333.448 157.679 333.265C161.888 332.939 165.419 333.474 169.343 335.03C171.551 335.905 173.997 337.424 176.271 338.836C176.502 338.98 176.732 339.123 176.959 339.264C177.407 339.541 177.856 339.813 178.305 340.08C163.498 295.869 173.67 245.119 208.847 209.897C245.303 173.395 298.427 163.776 343.677 181.024C337.515 164.683 327.865 149.362 314.719 136.2ZM355.605 214.724C315.861 187.846 261.404 192.033 226.226 227.255C191.338 262.187 186.928 316.119 213.044 355.838C216.8 361.55 221.192 366.976 226.226 372.016C237.63 383.435 255.904 394.441 276.327 399.333C296.578 404.183 318.031 402.847 337.001 391.109C337.189 390.993 337.383 390.873 337.58 390.75C339.407 389.614 341.602 388.249 343.615 387.451C347.153 386.048 350.391 385.558 354.186 385.852C356.338 386.018 358.543 386.596 360.266 387.047C360.438 387.092 360.605 387.136 360.767 387.178C368.136 389.09 373.064 390.362 376.81 391.07C380.612 391.788 381.807 391.623 382.018 391.58C386.185 390.731 389.455 387.467 390.307 383.274C390.352 383.053 390.514 381.85 389.797 378.041C389.09 374.289 387.82 369.354 385.91 361.975C385.868 361.814 385.824 361.646 385.779 361.475C385.328 359.747 384.751 357.541 384.586 355.384C384.295 351.585 384.79 348.328 386.199 344.788C387.001 342.77 388.366 340.582 389.5 338.764C389.622 338.568 389.741 338.377 389.857 338.19C401.671 319.156 403.203 297.904 398.493 277.838C393.741 257.592 382.758 239.265 370.762 227.255C366.022 222.509 360.942 218.334 355.605 214.724Z" fill="#3BA89A"/>
<path d="M265.878 299.625C265.878 308.669 258.547 316 249.503 316C240.459 316 233.128 308.669 233.128 299.625C233.128 290.581 240.459 283.25 249.503 283.25C258.547 283.25 265.878 290.581 265.878 299.625Z" fill="#3BA89A"/>
<path d="M315.003 299.625C315.003 308.669 307.672 316 298.628 316C289.584 316 282.253 308.669 282.253 299.625C282.253 290.581 289.584 283.25 298.628 283.25C307.672 283.25 315.003 290.581 315.003 299.625Z" fill="#3BA89A"/>
<path d="M364.128 299.625C364.128 308.669 356.797 316 347.753 316C338.709 316 331.378 308.669 331.378 299.625C331.378 290.581 338.709 283.25 347.753 283.25C356.797 283.25 364.128 290.581 364.128 299.625Z" fill="#3BA89A"/>
</svg>
