<svg width="1000" height="500" viewBox="0 0 1000 500" fill="none" xmlns="http://www.w3.org/2000/svg">
<path fill-rule="evenodd" clip-rule="evenodd" d="M217.643 162.119C214.657 146.435 207.097 131.444 194.977 119.308C162.801 87.0917 110.629 87.0917 78.453 119.308C68.6375 129.136 59.969 143.684 56.1779 159.835C52.3639 176.084 53.4214 194.336 63.7229 210.934C64.2503 211.784 64.5766 212.31 64.807 212.704C64.9133 212.886 64.9692 212.99 64.9928 213.034C65.0143 213.091 65.0275 213.13 65.0353 213.155C65.0352 213.184 65.0339 213.234 65.029 213.31C65.0226 213.345 65.0079 213.422 64.978 213.555C64.9018 213.892 64.7858 214.344 64.5793 215.141L64.5194 215.372C63.3363 219.943 62.3638 223.699 61.7922 226.734C61.2168 229.789 60.8839 232.873 61.496 235.884C63.2411 244.47 69.9449 251.187 78.5313 252.937C81.5434 253.551 84.6271 253.217 87.6792 252.64C90.7113 252.068 94.4637 251.094 99.0278 249.91L99.2592 249.849C100.056 249.643 100.506 249.527 100.843 249.45C100.974 249.421 101.051 249.406 101.086 249.399C101.156 249.395 101.204 249.393 101.234 249.393C101.258 249.401 101.295 249.414 101.347 249.433C101.392 249.457 101.497 249.513 101.68 249.62C102.077 249.852 102.608 250.179 103.462 250.708C108.99 254.128 114.743 256.519 120.571 258.033C122.733 261.044 125.164 263.918 127.863 266.621C135.816 274.584 147.963 281.81 161.493 285.051C175.117 288.314 190.639 287.63 204.685 278.94C205.366 278.518 205.782 278.261 206.089 278.081C206.334 278.14 206.67 278.226 207.228 278.371L207.453 278.43C211.183 279.398 214.306 280.208 216.842 280.687C219.399 281.17 222.121 281.48 224.831 280.928C232.367 279.392 238.249 273.497 239.781 265.963C240.331 263.255 240.022 260.533 239.54 257.974C239.062 255.436 238.252 252.309 237.286 248.575L237.227 248.35C237.081 247.785 236.994 247.447 236.936 247.201C237.115 246.896 237.371 246.483 237.793 245.803C246.475 231.815 247.349 216.449 244.153 202.83C240.979 189.309 233.728 177.135 225.494 168.891C223.014 166.407 220.388 164.149 217.643 162.119ZM185.514 128.76C158.562 101.774 114.868 101.774 87.9165 128.76C79.8026 136.884 72.4041 149.237 69.1991 162.892C66.017 176.448 67.0344 190.907 75.0869 203.881C75.1631 204.003 75.2404 204.127 75.3182 204.252C76.086 205.485 76.9128 206.812 77.3922 208.017C78.2426 210.155 78.537 212.09 78.3612 214.384C78.2624 215.673 77.9159 217.002 77.6116 218.17C77.5831 218.279 77.555 218.387 77.5275 218.493C76.2697 223.352 75.4144 226.67 74.9361 229.21C74.452 231.78 74.517 232.797 74.6029 233.22C75.2808 236.555 77.882 239.155 81.2018 239.831C81.6196 239.916 82.6314 239.982 85.1977 239.498C87.733 239.019 91.0464 238.163 95.8995 236.903C96.0057 236.876 96.1136 236.848 96.2229 236.819C97.3876 236.515 98.7154 236.168 100.001 236.068C102.293 235.891 104.216 236.182 106.352 237.029C107.555 237.506 108.886 238.333 110.125 239.102C110.251 239.18 110.376 239.258 110.5 239.334C110.744 239.485 110.988 239.633 111.232 239.779C103.17 215.705 108.708 188.07 127.863 168.891C147.715 149.014 176.642 143.776 201.282 153.168C197.927 144.27 192.672 135.928 185.514 128.76ZM207.777 171.519C186.136 156.883 156.482 159.163 137.327 178.342C118.329 197.364 115.928 226.732 130.149 248.36C132.194 251.47 134.586 254.424 137.327 257.169C143.537 263.387 153.488 269.38 164.608 272.044C175.636 274.685 187.317 273.957 197.647 267.566C197.75 267.502 197.855 267.437 197.962 267.37C198.957 266.752 200.152 266.008 201.249 265.574C203.175 264.81 204.938 264.543 207.005 264.703C208.177 264.794 209.377 265.108 210.316 265.354C210.409 265.378 210.5 265.402 210.588 265.425C214.601 266.467 217.284 267.159 219.324 267.544C221.395 267.935 222.045 267.846 222.16 267.822C224.429 267.36 226.21 265.582 226.674 263.299C226.698 263.179 226.787 262.524 226.396 260.45C226.011 258.407 225.319 255.719 224.279 251.702C224.256 251.614 224.233 251.523 224.208 251.429C223.962 250.488 223.648 249.287 223.558 248.112C223.4 246.044 223.67 244.27 224.437 242.343C224.874 241.244 225.617 240.052 226.234 239.063C226.301 238.956 226.366 238.852 226.429 238.75C232.862 228.385 233.696 216.813 231.131 205.886C228.544 194.862 222.563 184.882 216.031 178.342C213.45 175.758 210.684 173.485 207.777 171.519Z" fill="#3BA89A"/>
<path d="M158.918 217.75C158.918 222.675 154.926 226.667 150.002 226.667C145.077 226.667 141.085 222.675 141.085 217.75C141.085 212.826 145.077 208.833 150.002 208.833C154.926 208.833 158.918 212.826 158.918 217.75Z" fill="#3BA89A"/>
<path d="M185.668 217.75C185.668 222.675 181.676 226.667 176.752 226.667C171.827 226.667 167.835 222.675 167.835 217.75C167.835 212.826 171.827 208.833 176.752 208.833C181.676 208.833 185.668 212.826 185.668 217.75Z" fill="#3BA89A"/>
<path d="M212.418 217.75C212.418 222.675 208.426 226.667 203.502 226.667C198.577 226.667 194.585 222.675 194.585 217.75C194.585 212.826 198.577 208.833 203.502 208.833C208.426 208.833 212.418 212.826 212.418 217.75Z" fill="#3BA89A"/>
<path d="M318.74 230.646C318.37 226.922 316.785 224.029 313.985 221.967C311.184 219.905 307.383 218.874 302.582 218.874C299.32 218.874 296.565 219.335 294.319 220.259C292.072 221.151 290.348 222.397 289.148 223.998C287.979 225.598 287.394 227.414 287.394 229.445C287.332 231.138 287.686 232.615 288.456 233.877C289.256 235.139 290.348 236.232 291.733 237.155C293.118 238.047 294.719 238.832 296.535 239.509C298.35 240.156 300.289 240.71 302.351 241.171L310.846 243.202C314.97 244.126 318.755 245.357 322.202 246.896C325.649 248.434 328.634 250.327 331.158 252.574C333.682 254.821 335.636 257.467 337.021 260.514C338.437 263.561 339.16 267.054 339.191 270.994C339.16 276.78 337.683 281.796 334.759 286.043C331.866 290.26 327.68 293.537 322.202 295.876C316.755 298.185 310.184 299.339 302.49 299.339C294.857 299.339 288.209 298.169 282.547 295.83C276.915 293.491 272.513 290.029 269.343 285.443C266.204 280.827 264.558 275.118 264.404 268.316H283.747C283.962 271.486 284.87 274.133 286.471 276.256C288.102 278.349 290.272 279.934 292.98 281.011C295.719 282.058 298.812 282.581 302.259 282.581C305.644 282.581 308.584 282.089 311.076 281.104C313.6 280.119 315.554 278.749 316.939 276.995C318.324 275.241 319.017 273.225 319.017 270.947C319.017 268.824 318.386 267.039 317.124 265.592C315.893 264.146 314.077 262.915 311.677 261.899C309.307 260.884 306.398 259.96 302.951 259.129L292.657 256.544C284.686 254.605 278.392 251.574 273.775 247.45C269.159 243.326 266.866 237.77 266.897 230.784C266.866 225.06 268.389 220.058 271.467 215.781C274.575 211.503 278.838 208.163 284.255 205.763C289.671 203.362 295.827 202.162 302.721 202.162C309.738 202.162 315.862 203.362 321.094 205.763C326.357 208.163 330.45 211.503 333.374 215.781C336.298 220.058 337.806 225.013 337.898 230.646H318.74ZM389.984 227.091V241.864H347.281V227.091H389.984ZM356.976 210.102H376.642V276.21C376.642 278.026 376.919 279.442 377.473 280.457C378.027 281.442 378.796 282.135 379.781 282.535C380.797 282.935 381.966 283.135 383.29 283.135C384.213 283.135 385.136 283.058 386.06 282.904C386.983 282.719 387.691 282.581 388.183 282.489L391.276 297.123C390.291 297.431 388.906 297.785 387.121 298.185C385.336 298.616 383.167 298.877 380.612 298.969C375.873 299.154 371.718 298.523 368.148 297.077C364.608 295.63 361.854 293.384 359.884 290.337C357.914 287.29 356.945 283.443 356.976 278.795V210.102ZM448.267 267.808V227.091H467.933V298H449.051V285.12H448.313C446.712 289.275 444.05 292.614 440.326 295.138C436.633 297.661 432.124 298.923 426.8 298.923C422.06 298.923 417.89 297.846 414.289 295.692C410.688 293.537 407.872 290.475 405.841 286.505C403.841 282.535 402.825 277.78 402.794 272.24V227.091H422.46V268.732C422.491 272.917 423.615 276.226 425.831 278.657C428.046 281.088 431.016 282.304 434.74 282.304C437.11 282.304 439.326 281.765 441.388 280.688C443.45 279.58 445.112 277.949 446.374 275.795C447.666 273.64 448.297 270.978 448.267 267.808ZM521.38 227.091V241.864H478.678V227.091H521.38ZM488.372 210.102H508.038V276.21C508.038 278.026 508.315 279.442 508.869 280.457C509.423 281.442 510.193 282.135 511.178 282.535C512.193 282.935 513.363 283.135 514.686 283.135C515.609 283.135 516.533 283.058 517.456 282.904C518.379 282.719 519.087 282.581 519.58 282.489L522.673 297.123C521.688 297.431 520.303 297.785 518.518 298.185C516.733 298.616 514.563 298.877 512.009 298.969C507.269 299.154 503.114 298.523 499.544 297.077C496.005 295.63 493.25 293.384 491.281 290.337C489.311 287.29 488.341 283.443 488.372 278.795V210.102ZM571.907 227.091V241.864H529.205V227.091H571.907ZM538.9 210.102H558.566V276.21C558.566 278.026 558.843 279.442 559.397 280.457C559.951 281.442 560.72 282.135 561.705 282.535C562.721 282.935 563.89 283.135 565.214 283.135C566.137 283.135 567.06 283.058 567.983 282.904C568.907 282.719 569.615 282.581 570.107 282.489L573.2 297.123C572.215 297.431 570.83 297.785 569.045 298.185C567.26 298.616 565.09 298.877 562.536 298.969C557.796 299.154 553.642 298.523 550.071 297.077C546.532 295.63 543.778 293.384 541.808 290.337C539.838 287.29 538.869 283.443 538.9 278.795V210.102ZM616.272 299.385C608.978 299.385 602.699 297.908 597.437 294.953C592.205 291.968 588.173 287.751 585.341 282.304C582.51 276.826 581.094 270.347 581.094 262.869C581.094 255.575 582.51 249.173 585.341 243.664C588.173 238.155 592.158 233.862 597.298 230.784C602.468 227.706 608.531 226.168 615.487 226.168C620.165 226.168 624.52 226.922 628.552 228.43C632.614 229.907 636.153 232.138 639.169 235.124C642.216 238.109 644.586 241.864 646.279 246.388C647.972 250.881 648.818 256.144 648.818 262.176V267.577H588.942V255.39H630.306C630.306 252.558 629.69 250.05 628.459 247.865C627.228 245.68 625.52 243.972 623.335 242.741C621.181 241.479 618.672 240.848 615.81 240.848C612.825 240.848 610.178 241.54 607.87 242.925C605.592 244.28 603.807 246.111 602.515 248.419C601.222 250.696 600.56 253.236 600.53 256.036V267.624C600.53 271.132 601.176 274.164 602.468 276.718C603.792 279.272 605.654 281.242 608.054 282.627C610.455 284.012 613.302 284.705 616.595 284.705C618.78 284.705 620.781 284.397 622.596 283.781C624.412 283.166 625.966 282.242 627.259 281.011C628.552 279.78 629.536 278.272 630.214 276.487L648.402 277.688C647.479 282.058 645.586 285.874 642.724 289.136C639.893 292.368 636.23 294.892 631.737 296.707C627.274 298.492 622.119 299.385 616.272 299.385ZM661.652 298V227.091H680.718V239.463H681.456C682.749 235.062 684.919 231.738 687.966 229.491C691.013 227.214 694.521 226.075 698.491 226.075C699.476 226.075 700.538 226.137 701.677 226.26C702.815 226.383 703.816 226.552 704.677 226.768V244.218C703.754 243.941 702.477 243.695 700.846 243.479C699.214 243.264 697.722 243.156 696.368 243.156C693.475 243.156 690.889 243.787 688.612 245.049C686.365 246.28 684.58 248.004 683.257 250.219C681.964 252.435 681.318 254.99 681.318 257.883V298H661.652ZM717.384 298V203.455H731.649V285.72H774.49V298H717.384ZM810.291 299.57C805.797 299.57 801.735 298.739 798.103 297.077C794.472 295.384 791.594 292.937 789.47 289.737C787.378 286.536 786.331 282.612 786.331 277.964C786.331 273.964 787.101 270.67 788.639 268.085C790.178 265.5 792.256 263.453 794.872 261.945C797.488 260.437 800.411 259.299 803.643 258.529C806.875 257.76 810.168 257.175 813.522 256.775C817.769 256.282 821.216 255.882 823.863 255.575C826.51 255.236 828.434 254.697 829.634 253.959C830.834 253.22 831.434 252.02 831.434 250.358V250.035C831.434 246.003 830.295 242.879 828.018 240.663C825.771 238.447 822.417 237.339 817.954 237.339C813.307 237.339 809.644 238.37 806.967 240.433C804.32 242.464 802.489 244.726 801.473 247.219L788.501 244.264C790.04 239.955 792.286 236.478 795.241 233.831C798.226 231.153 801.658 229.214 805.536 228.014C809.414 226.783 813.492 226.168 817.769 226.168C820.601 226.168 823.602 226.506 826.772 227.183C829.972 227.83 832.958 229.03 835.728 230.784C838.528 232.538 840.821 235.047 842.606 238.309C844.391 241.54 845.284 245.741 845.284 250.912V298H831.804V288.305H831.25C830.357 290.09 829.018 291.845 827.233 293.568C825.448 295.292 823.155 296.723 820.355 297.862C817.554 299 814.199 299.57 810.291 299.57ZM813.291 288.49C817.108 288.49 820.37 287.736 823.078 286.228C825.818 284.72 827.895 282.75 829.311 280.319C830.757 277.857 831.48 275.225 831.48 272.425V263.284C830.988 263.777 830.034 264.238 828.618 264.669C827.233 265.069 825.648 265.423 823.863 265.731C822.078 266.008 820.339 266.269 818.647 266.516C816.954 266.731 815.538 266.916 814.399 267.07C811.722 267.408 809.275 267.978 807.059 268.778C804.874 269.578 803.12 270.732 801.796 272.24C800.504 273.717 799.858 275.687 799.858 278.149C799.858 281.565 801.119 284.151 803.643 285.905C806.167 287.628 809.383 288.49 813.291 288.49ZM864.777 298V203.455H878.58V238.586H879.411C880.211 237.109 881.365 235.401 882.873 233.462C884.381 231.523 886.474 229.83 889.152 228.384C891.829 226.906 895.369 226.168 899.77 226.168C905.494 226.168 910.603 227.614 915.096 230.507C919.59 233.4 923.114 237.57 925.668 243.018C928.253 248.465 929.546 255.021 929.546 262.684C929.546 270.347 928.269 276.918 925.714 282.396C923.16 287.844 919.651 292.045 915.189 294.999C910.726 297.923 905.633 299.385 899.908 299.385C895.599 299.385 892.075 298.662 889.336 297.215C886.628 295.769 884.504 294.076 882.966 292.137C881.427 290.198 880.242 288.475 879.411 286.967H878.257V298H864.777ZM878.303 262.545C878.303 267.531 879.026 271.902 880.473 275.656C881.919 279.411 884.012 282.35 886.751 284.474C889.49 286.567 892.845 287.613 896.815 287.613C900.939 287.613 904.386 286.52 907.156 284.335C909.926 282.119 912.019 279.119 913.434 275.333C914.881 271.548 915.604 267.285 915.604 262.545C915.604 257.867 914.896 253.666 913.481 249.942C912.096 246.219 910.003 243.279 907.202 241.125C904.432 238.971 900.97 237.893 896.815 237.893C892.814 237.893 889.429 238.924 886.659 240.987C883.92 243.049 881.842 245.926 880.427 249.619C879.011 253.312 878.303 257.621 878.303 262.545Z" fill="white"/>
<path d="M907.307 165.034V161.909H929.125V165.034H919.977V191H916.455V165.034H907.307ZM934.562 161.909H938.766L948.653 186.057H948.994L958.88 161.909H963.085V191H959.789V168.898H959.505L950.414 191H947.232L938.141 168.898H937.857V191H934.562V161.909Z" fill="white"/>
</svg>
